<svg width="314.8699523925781px" height="120.8px" xmlns="http://www.w3.org/2000/svg" viewBox="92.56502380371094 14.600000000000001 314.8699523925781 120.8" style="background: rgba(0, 0, 0, 0);" preserveAspectRatio="xMidYMid"><defs><filter id="editing-extrusion" x="-100%" y="-100%" width="300%" height="300%"><feFlood result="color1" flood-color="#444"></feFlood><feConvolveMatrix order="8,8" divisor="1" kernelMatrix="1 0 0 0 0 0 0 0 0 1 0 0 0 0 0 0 0 0 1 0 0 0 0 0 0 0 0 1 0 0 0 0 0 0 0 0 1 0 0 0 0 0 0 0 0 1 0 0 0 0 0 0 0 0 1 0 0 0 0 0 0 0 0 1" in="SourceAlpha" result="extrude"></feConvolveMatrix><feComposite in="color1" in2="extrude" result="comp-extrude" operator="in"></feComposite><feOffset dx="4" dy="4" in="comp-extrude" result="offset-extrude"></feOffset><feMerge><feMergeNode in="offset-extrude"></feMergeNode><feMergeNode in="SourceGraphic"></feMergeNode></feMerge></filter></defs><g filter="url(#editing-extrusion)"><g transform="translate(142.70502164959908, 104.1200008392334)"><path d="M0.45-0.32L0.45-0.32L8.51-42.24L8.51-42.24Q16.06-42.88 20.93-42.88L20.93-42.88L20.93-42.88Q25.79-42.88 28.93-42.46L28.93-42.46L28.93-42.46Q32.06-42.05 34.18-40.96L34.18-40.96L34.18-40.96Q38.40-38.91 38.40-33.28L38.40-33.28L38.40-33.28Q38.40-30.02 35.58-27.26L35.58-27.26L35.58-27.26Q32.96-24.77 30.08-24.19L30.08-24.19L30.08-24.19Q33.15-23.68 35.33-21.38L35.33-21.38L35.33-21.38Q37.63-18.94 37.63-15.17L37.63-15.17L37.63-15.17Q37.63-7.87 32.19-3.62L32.19-3.62L32.19-3.62Q26.75 0.64 16.06 0.64L16.06 0.64L16.06 0.64Q8.70 0.64 0.45-0.32ZM17.86-20.61L14.66-4.03L14.66-4.03Q15.23-3.97 15.36-3.97L15.36-3.97L15.94-3.97L15.94-3.97Q21.18-3.97 23.42-7.42L23.42-7.42L23.42-7.42Q25.09-10.11 25.09-15.04L25.09-15.04L25.09-15.04Q25.09-17.66 23.39-19.07L23.39-19.07L23.39-19.07Q21.70-20.48 17.86-20.61L17.86-20.61ZM27.58-33.22L27.58-33.22L27.58-33.22Q27.58-38.53 22.46-38.53L22.46-38.53L21.89-38.53L21.89-38.53Q21.63-38.53 21.25-38.46L21.25-38.46L18.69-24.96L19.33-24.96L19.33-24.96Q27.58-25.15 27.58-33.22ZM44.64-1.92L44.64-1.92L44.64-1.92Q43.14-3.58 42.46-6.21L42.46-6.21L42.46-6.21Q41.79-8.83 41.79-13.12L41.79-13.12L41.79-13.12Q41.79-17.41 43.26-21.31L43.26-21.31L43.26-21.31Q44.74-25.22 47.42-28.03L47.42-28.03L47.42-28.03Q52.93-33.92 62.02-33.92L62.02-33.92L62.02-33.92Q65.28-33.92 67.65-32.83L67.65-32.83L78.59-33.92L73.86-8.96L73.86-8.96Q73.66-8.19 73.66-6.78L73.66-6.78L73.66-6.78Q73.66-5.38 74.53-4.48L74.53-4.48L74.53-4.48Q75.39-3.58 76.67-3.46L76.67-3.46L76.67-3.46Q76.03-1.28 73.70 0L73.70 0L73.70 0Q71.36 1.28 68.74 1.28L68.74 1.28L68.74 1.28Q66.11 1.28 64.35 0.29L64.35 0.29L64.35 0.29Q62.59-0.70 62.08-2.37L62.08-2.37L62.08-2.37Q61.06-0.77 58.88 0.26L58.88 0.26L58.88 0.26Q56.70 1.28 53.79 1.28L53.79 1.28L53.79 1.28Q50.88 1.28 48.51 0.51L48.51 0.51L48.51 0.51Q46.14-0.26 44.64-1.92ZM58.14-27.90L58.14-27.90L58.14-27.90Q57.41-26.75 56.77-24.80L56.77-24.80L56.77-24.80Q56.13-22.85 55.07-17.63L55.07-17.63L55.07-17.63Q54.02-12.42 54.02-8.70L54.02-8.70L54.02-8.70Q54.02-4.99 54.59-3.90L54.59-3.90L54.59-3.90Q55.17-2.82 56.19-2.82L56.19-2.82L56.19-2.82Q58.24-2.82 59.74-4.77L59.74-4.77L59.74-4.77Q61.25-6.72 61.82-10.18L61.82-10.18L65.22-28.93L65.22-28.93Q63.87-30.08 62.30-30.08L62.30-30.08L62.30-30.08Q60.74-30.08 59.81-29.57L59.81-29.57L59.81-29.57Q58.88-29.06 58.14-27.90ZM73.15 7.62L73.15 7.62L73.15 7.62Q76.48 7.36 78.91 3.20L78.91 3.20L78.91 3.20Q80.77 0 81.98-5.89L81.98-5.89L87.17-32.64L100.03-33.92L94.59-5.89L94.59-5.89Q92.48 4.80 89.22 8.32L89.22 8.32L89.22 8.32Q87.49 10.24 85.25 10.88L85.25 10.88L85.25 10.88Q83.01 11.52 80.45 11.52L80.45 11.52L80.45 11.52Q75.07 11.52 73.15 7.62ZM88.19-41.54L88.19-41.54L88.19-41.54Q88.19-44.03 90.27-45.38L90.27-45.38L90.27-45.38Q92.35-46.72 95.36-46.72L95.36-46.72L95.36-46.72Q98.37-46.72 100.19-45.38L100.19-45.38L100.19-45.38Q102.02-44.03 102.02-41.54L102.02-41.54L102.02-41.54Q102.02-39.04 100-37.76L100-37.76L100-37.76Q97.98-36.48 94.98-36.48L94.98-36.48L94.98-36.48Q91.97-36.48 90.08-37.76L90.08-37.76L90.08-37.76Q88.19-39.04 88.19-41.54ZM105.12-1.92L105.12-1.92L105.12-1.92Q103.62-3.58 102.94-6.21L102.94-6.21L102.94-6.21Q102.27-8.83 102.27-13.12L102.27-13.12L102.27-13.12Q102.27-17.41 103.74-21.31L103.74-21.31L103.74-21.31Q105.22-25.22 107.90-28.03L107.90-28.03L107.90-28.03Q113.41-33.92 122.50-33.92L122.50-33.92L122.50-33.92Q125.76-33.92 128.13-32.83L128.13-32.83L139.07-33.92L134.34-8.96L134.34-8.96Q134.14-8.19 134.14-6.78L134.14-6.78L134.14-6.78Q134.14-5.38 135.01-4.48L135.01-4.48L135.01-4.48Q135.87-3.58 137.15-3.46L137.15-3.46L137.15-3.46Q136.51-1.28 134.18 0L134.18 0L134.18 0Q131.84 1.28 129.22 1.28L129.22 1.28L129.22 1.28Q126.59 1.28 124.83 0.29L124.83 0.29L124.83 0.29Q123.07-0.70 122.56-2.37L122.56-2.37L122.56-2.37Q121.54-0.77 119.36 0.26L119.36 0.26L119.36 0.26Q117.18 1.28 114.27 1.28L114.27 1.28L114.27 1.28Q111.36 1.28 108.99 0.51L108.99 0.51L108.99 0.51Q106.62-0.26 105.12-1.92ZM118.62-27.90L118.62-27.90L118.62-27.90Q117.89-26.75 117.25-24.80L117.25-24.80L117.25-24.80Q116.61-22.85 115.55-17.63L115.55-17.63L115.55-17.63Q114.50-12.42 114.50-8.70L114.50-8.70L114.50-8.70Q114.50-4.99 115.07-3.90L115.07-3.90L115.07-3.90Q115.65-2.82 116.67-2.82L116.67-2.82L116.67-2.82Q118.72-2.82 120.22-4.77L120.22-4.77L120.22-4.77Q121.73-6.72 122.30-10.18L122.30-10.18L125.70-28.93L125.70-28.93Q124.35-30.08 122.78-30.08L122.78-30.08L122.78-30.08Q121.22-30.08 120.29-29.57L120.29-29.57L120.29-29.57Q119.36-29.06 118.62-27.90ZM156.22 1.28L156.22 1.28L156.22 1.28Q142.14 1.28 142.14-11.97L142.14-11.97L142.14-11.97Q142.14-21.38 147.33-27.46L147.33-27.46L147.33-27.46Q152.83-33.92 162.37-33.92L162.37-33.92L162.37-33.92Q169.28-33.92 172.80-30.72L172.80-30.72L172.80-30.72Q176.32-27.52 176.32-20.80L176.32-20.80L176.32-20.80Q176.32-10.56 170.82-4.61L170.82-4.61L170.82-4.61Q165.44 1.28 156.22 1.28ZM157.89-26.56L157.89-26.56L157.89-26.56Q157.12-24.83 156.51-22.24L156.51-22.24L156.51-22.24Q155.90-19.65 155.14-15.55L155.14-15.55L155.14-15.55Q154.37-11.46 154.37-6.40L154.37-6.40L154.37-6.40Q154.37-4.74 154.91-3.65L154.91-3.65L154.91-3.65Q155.46-2.56 156.93-2.56L156.93-2.56L156.93-2.56Q158.40-2.56 159.33-3.26L159.33-3.26L159.33-3.26Q160.26-3.97 160.96-5.63L160.96-5.63L160.96-5.63Q162.24-8.58 163.26-14.05L163.26-14.05L163.26-14.05Q164.29-19.52 164.38-21.89L164.38-21.89L164.38-21.89Q164.48-24.26 164.48-26.02L164.48-26.02L164.48-26.02Q164.48-27.78 163.97-28.93L163.97-28.93L163.97-28.93Q163.46-30.08 162.02-30.08L162.02-30.08L162.02-30.08Q160.58-30.08 159.62-29.18L159.62-29.18L159.62-29.18Q158.66-28.29 157.89-26.56ZM194.05 1.28L194.05 1.28L194.05 1.28Q179.97 1.28 179.97-11.97L179.97-11.97L179.97-11.97Q179.97-21.38 185.15-27.46L185.15-27.46L185.15-27.46Q190.66-33.92 200.19-33.92L200.19-33.92L200.19-33.92Q207.10-33.92 210.62-30.72L210.62-30.72L210.62-30.72Q214.14-27.52 214.14-20.80L214.14-20.80L214.14-20.80Q214.14-10.56 208.64-4.61L208.64-4.61L208.64-4.61Q203.26 1.28 194.05 1.28ZM195.71-26.56L195.71-26.56L195.71-26.56Q194.94-24.83 194.34-22.24L194.34-22.24L194.34-22.24Q193.73-19.65 192.96-15.55L192.96-15.55L192.96-15.55Q192.19-11.46 192.19-6.40L192.19-6.40L192.19-6.40Q192.19-4.74 192.74-3.65L192.74-3.65L192.74-3.65Q193.28-2.56 194.75-2.56L194.75-2.56L194.75-2.56Q196.22-2.56 197.15-3.26L197.15-3.26L197.15-3.26Q198.08-3.97 198.78-5.63L198.78-5.63L198.78-5.63Q200.06-8.58 201.09-14.05L201.09-14.05L201.09-14.05Q202.11-19.52 202.21-21.89L202.21-21.89L202.21-21.89Q202.30-24.26 202.30-26.02L202.30-26.02L202.30-26.02Q202.30-27.78 201.79-28.93L201.79-28.93L201.79-28.93Q201.28-30.08 199.84-30.08L199.84-30.08L199.84-30.08Q198.40-30.08 197.44-29.18L197.44-29.18L197.44-29.18Q196.48-28.29 195.71-26.56Z" fill="#ccc"></path></g></g><style>text {
  font-size: 64px;
  font-family: Arial Black;
  dominant-baseline: central;
  text-anchor: middle;
}</style></svg>